<?xml version="1.0" encoding="UTF-8"?>
<svg xmlns="http://www.w3.org/2000/svg" width="16" height="16" viewBox="0 0 16 16">
  <path d="M2 3C2 2.44772 2.44772 2 3 2H6.5L8 3.5H13C13.5523 3.5 14 3.94772 14 4.5V13C14 13.5523 13.5523 14 13 14H3C2.44772 14 2 13.5523 2 13V3Z" fill="currentColor"/>
  <path d="M5 7.5C5 7.22386 5.22386 7 5.5 7H10.5C10.7761 7 11 7.22386 11 7.5V10.5C11 10.7761 10.7761 11 10.5 11H5.5C5.22386 11 5 10.7761 5 10.5V7.5Z" fill="#2B2B2B"/>
  <circle cx="9.5" cy="8.5" r="0.5" fill="currentColor"/>
  <path d="M5 10.5L7 8.5L8 9.5L10 7.5L11 8.5" stroke="currentColor" stroke-width="0.5"/>
</svg> 