<?xml version="1.0" encoding="UTF-8"?>
<svg xmlns="http://www.w3.org/2000/svg" width="16" height="16" viewBox="0 0 16 16">
  <path d="M2 3C2 2.44772 2.44772 2 3 2H6.5L8 3.5H13C13.5523 3.5 14 3.94772 14 4.5V13C14 13.5523 13.5523 14 13 14H3C2.44772 14 2 13.5523 2 13V3Z" fill="currentColor"/>
  <path d="M5 7.5C5 7.22386 5.22386 7 5.5 7H8.5C8.77614 7 9 7.22386 9 7.5V10.5C9 10.7761 8.77614 11 8.5 11H5.5C5.22386 11 5 10.7761 5 10.5V7.5Z" fill="#2B2B2B"/>
  <path d="M9 8L11 7V11L9 10" stroke="#2B2B2B" stroke-width="1" stroke-linecap="round" stroke-linejoin="round"/>
</svg> 