<?xml version="1.0" encoding="UTF-8"?>
<svg xmlns="http://www.w3.org/2000/svg" width="16" height="16" viewBox="0 0 16 16">
  <path d="M8 5C6.34315 5 5 6.34315 5 8C5 9.65685 6.34315 11 8 11C9.65685 11 11 9.65685 11 8C11 6.34315 9.65685 5 8 5Z" fill="currentColor"/>
  <path d="M7 2H9L9.5 4L10.5 4.5L12 3L13.5 4.5L12 6L12.5 7H14V9L12.5 9.5L12 10.5L13.5 12L12 13.5L10.5 12L9.5 12.5L9 14H7L6.5 12.5L5.5 12L4 13.5L2.5 12L4 10.5L3.5 9.5L2 9V7L3.5 6.5L4 5.5L2.5 4L4 2.5L5.5 4L6.5 3.5L7 2Z" fill="currentColor"/>
  <path d="M8 6.5C7.17157 6.5 6.5 7.17157 6.5 8C6.5 8.82843 7.17157 9.5 8 9.5C8.82843 9.5 9.5 8.82843 9.5 8C9.5 7.17157 8.82843 6.5 8 6.5Z" fill="#2B2B2B"/>
</svg> 