<?xml version="1.0" encoding="UTF-8"?>
<svg xmlns="http://www.w3.org/2000/svg" width="16" height="16" viewBox="0 0 16 16">
  <path d="M8 2C4.68629 2 2 4.68629 2 8C2 11.3137 4.68629 14 8 14C11.3137 14 14 11.3137 14 8C14 4.68629 11.3137 2 8 2Z" fill="currentColor"/>
  <path d="M8 4C5.79086 4 4 5.79086 4 8C4 10.2091 5.79086 12 8 12C10.2091 12 12 10.2091 12 8C12 5.79086 10.2091 4 8 4Z" fill="#2B2B2B"/>
  <path d="M8 6L9.5 7V9L8 10L6.5 9V7L8 6Z" fill="currentColor"/>
  <path d="M8 7L8.5 7.5V8.5L8 9L7.5 8.5V7.5L8 7Z" fill="#2B2B2B"/>
  <path d="M4 4L12 12M4 12L12 4" stroke="#2B2B2B" stroke-width="0.75"/>
</svg> 