<?xml version="1.0" encoding="UTF-8"?>
<svg width="24" height="24" viewBox="0 0 24 24" fill="none" xmlns="http://www.w3.org/2000/svg">
  <path d="M12 2C6.47715 2 2 6.47715 2 12C2 17.5228 6.47715 22 12 22C17.5228 22 22 17.5228 22 12C22 6.47715 17.5228 2 12 2Z" fill="currentColor"/>
  <path d="M15.5 7.5C15.5 7.5 16.5 8.5 16.5 10C16.5 11.5 15 12.5 15 12.5L12 14L9 12.5C9 12.5 7.5 11.5 7.5 10C7.5 8.5 8.5 7.5 8.5 7.5C8.5 7.5 10 8 12 8C14 8 15.5 7.5 15.5 7.5Z" fill="white"/>
  <path d="M12 14V18" stroke="white" stroke-width="2" stroke-linecap="round"/>
  <path d="M9 16L12 18L15 16" stroke="white" stroke-width="2" stroke-linecap="round" stroke-linejoin="round"/>
</svg> 